<svg width="32" height="32" viewBox="0 0 32 32" fill="none" xmlns="http://www.w3.org/2000/svg">
<path d="M29.1855 10.7252C29.4307 10.1969 29.2495 9.56867 28.7606 9.25211C27.8449 8.68161 26.8337 8.28121 25.7757 8.07021C25.4461 7.44803 24.9491 6.93037 24.3409 6.57565C22.5306 5.43152 19.4098 4.32778 14.7687 5.44254C13.1205 3.77434 11.0368 3.51782 8.90855 4.3304C6.7955 5.1409 4.3913 7.24503 2.83275 8.88804C1.83865 9.92988 1.20652 10.6381 1.54068 11.9999C0.994175 13.1595 0.637627 14.3993 0.484681 15.672C0.0645288 18.9669 1.29632 22.257 3.77701 24.4657C4.91432 26.9261 7.67576 27.8278 10.3931 27.8278C10.9207 27.8198 11.4472 27.7802 11.9701 27.7093C12.139 27.7885 12.3179 27.8441 12.502 27.8745C14.2856 28.1436 18.0626 27.7046 18.4031 25.8942C18.5757 24.9714 17.8701 23.9878 16.2575 22.8998C16.3175 21.9792 16.0236 21.0705 15.436 20.3592C15.7771 20.1129 16.0363 19.7696 16.1799 19.3741C17.0214 19.2553 17.7428 18.7124 18.0899 17.9367C19.6994 18.3889 20.9783 18.2074 21.7022 16.7002C23.1092 17.2002 24.8183 16.9148 26.1938 16.3262C27.6015 17.136 29.2926 17.2906 30.8238 16.7495C33.3324 15.7476 31.3468 12.3697 29.1855 10.7252ZM1.52127 15.8556C1.65812 14.6844 1.98169 13.5426 2.4797 12.4736C4.39048 11.5149 6.61142 11.384 8.6216 12.1116C12.5518 13.6015 14.8275 18.1712 15.2005 18.9701C15.1068 19.2574 14.9065 19.4978 14.6407 19.6416C13.3962 18.878 12.0573 18.28 10.6581 17.8627C6.35642 16.4295 3.18789 19.0315 3.27707 22.348C1.84927 20.5047 1.21714 18.1673 1.52127 15.8556ZM10.1382 26.775C8.85818 26.754 5.77045 26.4335 4.68612 23.9396C3.25242 20.6378 6.07209 17.4394 10.326 18.8584C11.5054 19.2218 12.6449 19.7039 13.7269 20.2973C14.7682 20.9368 15.0588 21.4892 15.1648 22.2567C14.7546 22.0845 14.2995 22.051 13.8685 22.1612C12.4275 22.572 11.2931 23.6856 10.8558 25.1189C10.6689 25.6578 10.7125 26.2499 10.9765 26.7556C10.6976 26.7777 10.4178 26.7842 10.1382 26.775ZM17.3733 25.7011C17.3093 26.0432 16.6856 26.5017 15.127 26.7613C14.3141 26.9145 13.4823 26.9402 12.6615 26.8374C12.3584 26.7879 12.0927 26.6071 11.9354 26.3434C11.7781 26.0797 11.7453 25.76 11.8457 25.4698C12.166 24.3598 13.0346 23.4925 14.145 23.1737C14.4136 23.1085 14.6972 23.1541 14.9319 23.3001C17.3455 24.7322 17.4106 25.5002 17.3733 25.7011ZM16.0619 18.3343C14.1303 14.327 10.5442 10.5872 6.0553 10.5872C4.83254 10.5997 3.6238 10.8491 2.49596 11.3216C2.50488 10.797 2.8852 10.3553 3.46383 9.74784C7.19838 5.83231 11.7854 2.62601 14.7766 7.11021C17.5213 11.2261 18.6963 17.88 16.0613 18.3343H16.0619ZM18.4325 16.9468C19.1113 13.826 17.4541 9.08319 15.5194 6.34535C19.5268 5.50601 22.209 6.46758 23.7849 7.46326C24.1402 7.67655 24.449 7.95913 24.6929 8.29421C22.9446 9.28742 21.7666 11.0464 21.5139 13.0412C21.4085 13.9894 21.2133 14.9254 20.9311 15.8368C20.5387 16.9505 19.9769 17.3801 18.432 16.9468H18.4325ZM22.0658 15.7172C22.2826 14.8859 22.4452 14.0415 22.5526 13.1892C22.7756 11.417 23.867 9.87248 25.463 9.0706C26.427 9.25323 27.3492 9.61153 28.1836 10.1276C28.2701 10.1848 28.2801 10.3107 28.1432 10.3973C27.2754 11.0272 26.6209 11.9072 26.2672 12.9195C25.8856 13.7134 25.6502 14.5696 25.5721 15.447C24.4672 15.9304 23.2312 16.0256 22.0653 15.7172H22.0658ZM30.4361 15.7754C28.9704 16.3624 27.4738 15.8116 26.625 15.3683C26.7278 14.6554 26.9357 13.9617 27.2419 13.3098C27.4889 12.611 27.9032 11.9831 28.4485 11.4811C29.6844 12.364 31.0295 14.1371 30.9455 15.1532C30.929 15.4494 30.7228 15.701 30.4356 15.7754H30.4361Z" fill="#FEFEFE"/>
<path d="M12.1705 6.16155C11.3458 5.89988 10.4543 5.94573 9.66082 6.2906C8.69267 6.71093 7.7885 7.26544 6.97492 7.93781C6.87 8.01965 6.76508 8.10306 6.66016 8.18804C6.4853 8.32793 6.31044 8.47359 6.13557 8.62502C5.93077 8.81736 5.91385 9.1369 6.09721 9.34977C6.28056 9.56265 6.59907 9.59329 6.81964 9.41925C6.98436 9.27691 7.14978 9.1386 7.3159 9.0043C7.41505 8.92456 7.51472 8.84693 7.61597 8.76719C8.34884 8.15918 9.16232 7.65552 10.0333 7.27053C10.5862 7.02068 11.2098 6.97495 11.7933 7.14148C12.0639 7.24506 12.3672 7.10966 12.4708 6.83906C12.5744 6.56845 12.439 6.26512 12.1684 6.16155H12.1705Z" fill="#FEFEFE"/>
<path d="M27.5409 17.836C26.5269 17.836 25.7048 18.6581 25.7048 19.6721C25.7048 20.6861 26.5269 21.5082 27.5409 21.5082C28.5549 21.5082 29.377 20.6861 29.377 19.6721C29.377 18.6581 28.5549 17.836 27.5409 17.836ZM27.5409 20.459C27.1063 20.459 26.754 20.1067 26.754 19.6721C26.754 19.2375 27.1063 18.8852 27.5409 18.8852C27.9755 18.8852 28.3278 19.2375 28.3278 19.6721C28.3278 20.1067 27.9755 20.459 27.5409 20.459Z" fill="#FEFEFE"/>
<path d="M24.1312 19.4098C24.4209 19.4098 24.6558 19.1749 24.6558 18.8852C24.6558 18.5955 24.4209 18.3606 24.1312 18.3606C23.8414 18.3606 23.6066 18.5955 23.6066 18.8852C23.6066 19.1749 23.8414 19.4098 24.1312 19.4098Z" fill="#FEFEFE"/>
<path d="M22.0328 19.9344C22.3225 19.9344 22.5574 19.6995 22.5574 19.4098C22.5574 19.12 22.3225 18.8852 22.0328 18.8852C21.743 18.8852 21.5082 19.12 21.5082 19.4098C21.5082 19.6995 21.743 19.9344 22.0328 19.9344Z" fill="#FEFEFE"/>
</svg>
