<svg width="32" height="32" viewBox="0 0 32 32" fill="none" xmlns="http://www.w3.org/2000/svg">
<g clip-path="url(#clip0_1_2595)">
<path d="M26.3531 0.369728C26.212 0.0547915 25.8424 -0.0863329 25.5272 0.054729L20.2031 2.43859C18.8122 3.0614 17.8055 4.32571 17.5102 5.82077L17.3712 6.52395H13.0907L14.3167 5.65514C14.5941 5.45846 14.6621 5.06171 14.4652 4.78384C13.4486 3.34947 11.7943 2.62953 10.1564 2.73447C8.50002 2.72766 6.5779 4.03384 6.02121 5.60702C5.33822 7.13426 5.4544 8.97388 6.48977 10.4353C6.6864 10.7128 7.08308 10.7808 7.36102 10.5839L8.90427 9.49044C8.03577 13.7051 7.29015 18.043 7.29015 22.3583C7.29015 25.1247 7.68533 27.9906 8.86633 30.5177C9.28714 31.4182 10.2044 32.0002 11.2031 32.0002H13.0837C13.4288 32.0002 13.7087 31.7203 13.7087 31.3752C13.7087 31.03 13.4288 30.7502 13.0837 30.7502H11.2031C10.6878 30.7502 10.215 30.4512 9.99876 29.9885C9.8272 29.6213 9.61901 29.1174 9.41426 28.4772C10.0759 28.9584 10.9206 29.3383 11.9386 29.3383H19.3828C20.4004 29.3383 21.2463 28.956 21.9093 28.4727C21.7042 29.1151 21.4954 29.6205 21.3235 29.9885C21.1072 30.4512 20.6345 30.7502 20.1191 30.7502H18.5825C18.2374 30.7502 17.9575 31.0301 17.9575 31.3752C17.9575 31.7204 18.2374 32.0002 18.5825 32.0002H20.1191C21.1178 32.0002 22.035 31.4183 22.4559 30.5177C23.7761 27.6927 24.1008 24.4871 24.0171 21.4042C23.9147 18.0106 23.3033 14.1177 22.7828 11.3408C22.782 11.3362 22.7806 11.3317 22.7796 11.3271C22.3076 8.81369 21.8755 7.02189 21.8707 7.00195C21.8027 6.72158 21.5517 6.52408 21.2632 6.52408H18.6454L18.7365 6.06321C18.9534 4.9654 19.6926 4.0369 20.714 3.57959L26.0381 1.19572C26.3531 1.05454 26.4941 0.684789 26.3531 0.369728ZM10.5553 7.77395H17.1244L16.5205 10.8307H9.91226C10.1813 9.44901 10.4216 8.36032 10.5553 7.77395ZM10.9289 6.52389H10.6995L10.7612 3.98571C11.6028 4.0524 12.4168 4.40834 13.0402 5.02765L10.9289 6.52389ZM8.37414 4.6414C8.72814 4.39065 9.11201 4.21253 9.50795 4.10353L9.45589 6.24564L7.51727 5.49608C7.74714 5.17346 8.03314 4.88302 8.37414 4.6414ZM7.19221 9.17151C6.8069 8.3622 6.74565 7.45676 6.97734 6.62745L9.32726 7.53608C9.31683 7.58195 9.3057 7.63101 9.29408 7.68232L7.19221 9.17151ZM19.3829 28.0882H11.9386C10.2065 28.0882 9.07339 26.4096 8.82795 26.0094C8.46595 23.8199 8.49352 21.597 8.67139 19.3912C8.86914 16.9388 9.2357 14.5003 9.67657 12.0807H16.2736L13.7082 25.0664C13.6414 25.4051 13.8616 25.7338 14.2002 25.8007C14.2412 25.8088 14.2819 25.8126 14.3221 25.8126C14.6145 25.8126 14.8757 25.6064 14.9346 25.3087L17.5477 12.0807H21.6458C22.0891 14.5134 22.4573 16.9653 22.6542 19.4312C22.8293 21.6237 22.8543 23.8326 22.4945 26.0089C22.2446 26.4153 21.1104 28.0882 19.3829 28.0882ZM20.767 7.77395C20.9008 8.36032 21.141 9.44901 21.4101 10.8307H17.7947L18.3985 7.77395H20.767Z" fill="#FEFEFE"/>
<path d="M20.0561 20.2683H18.297C17.5586 20.2683 16.9578 20.8691 16.9578 21.6075V23.3667C16.9578 24.105 17.5586 24.7058 18.297 24.7058H20.0561C20.7945 24.7058 21.3953 24.1051 21.3953 23.3667V21.6075C21.3952 20.8692 20.7945 20.2683 20.0561 20.2683ZM20.1452 23.3667C20.1452 23.4158 20.1052 23.4558 20.0561 23.4558H18.297C18.2478 23.4558 18.2078 23.4158 18.2078 23.3667V21.6075C18.2078 21.5583 18.2478 21.5183 18.297 21.5183H20.0561C20.1052 21.5183 20.1452 21.5583 20.1452 21.6075V23.3667Z" fill="#FEFEFE"/>
<path d="M14.0225 15.427L13.0905 14.4949C12.6231 14.0278 11.8628 14.0276 11.3955 14.495L10.4635 15.427C10.2371 15.6534 10.1125 15.9544 10.1125 16.2746C10.1125 16.5948 10.2371 16.8957 10.4635 17.1221L11.3955 18.0541C11.6291 18.2877 11.9361 18.4046 12.243 18.4046C12.55 18.4046 12.8569 18.2877 13.0906 18.0541L14.0226 17.1221C14.4898 16.6547 14.4898 15.8944 14.0225 15.427ZM12.243 17.1338L11.3838 16.2746L12.243 15.4152L13.1022 16.2746L12.243 17.1338Z" fill="#FEFEFE"/>
<path d="M16.4266 31.1356C16.3284 30.8996 16.0896 30.7449 15.834 30.7506C15.5562 30.7569 15.3114 30.9547 15.2434 31.2232C15.1072 31.7605 15.72 32.1966 16.185 31.9019C16.4389 31.741 16.5404 31.413 16.4266 31.1356Z" fill="#FEFEFE"/>
</g>
<defs>
<clipPath id="clip0_1_2595">
<rect width="32" height="32" fill="white"/>
</clipPath>
</defs>
</svg>
