<svg width="32" height="32" viewBox="0 0 32 32" fill="none" xmlns="http://www.w3.org/2000/svg">
<path d="M24.6667 12.6663H5.99956C4.89685 12.6663 3.99951 13.5636 3.99951 14.6664V15.9997C3.99951 20.7571 6.62757 25.0719 10.857 27.26C11.1837 27.428 11.5863 27.3013 11.7557 26.9733C11.9237 26.6466 11.797 26.2439 11.469 26.0746C7.68491 24.1172 5.33286 20.2571 5.33286 15.9996V14.6663C5.33286 14.2983 5.63155 13.9996 5.99956 13.9996H24.6667C25.0347 13.9996 25.3334 14.2983 25.3334 14.6663V15.9996C25.3334 20.257 22.9813 24.1171 19.1959 26.0732C18.8679 26.2425 18.7412 26.6452 18.9092 26.9719C19.0279 27.2012 19.2612 27.3332 19.5026 27.3332C19.6066 27.3332 19.7106 27.3092 19.8079 27.2585C24.0387 25.0718 26.6667 20.7584 26.6667 15.9996V14.6662C26.6667 13.5636 25.7693 12.6663 24.6667 12.6663Z" fill="#FEFEFE"/>
<path d="M30.6173 26.4104C30.5133 26.1611 30.2706 25.9984 30.0013 25.9984H0.66728C0.397962 25.9984 0.155268 26.1611 0.051266 26.4104C-0.0527364 26.6597 0.00457745 26.9464 0.195269 27.1371L1.68999 28.6332C2.5727 29.5145 3.74335 29.9999 4.99007 29.9999H25.6759C26.9226 29.9999 28.0946 29.5146 28.9786 28.6332L30.4734 27.1371C30.664 26.9464 30.7213 26.6597 30.6173 26.4104ZM28.0346 27.6905C27.4053 28.3198 26.5666 28.6665 25.6772 28.6665H4.99007C4.10074 28.6665 3.26203 28.3198 2.6327 27.6905L2.27538 27.3331H28.3919L28.0346 27.6905Z" fill="#FEFEFE"/>
<path d="M30.7107 15.8142C28.9146 14.6594 26.0453 15.9129 25.7239 16.0582C25.3892 16.2115 25.2399 16.6062 25.3932 16.9422C25.5465 17.2782 25.9399 17.4262 26.2772 17.2729C26.9199 16.9809 28.9813 16.2889 29.9893 16.9382C30.444 17.2302 30.6666 17.7969 30.6666 18.6662C30.6666 21.3356 25.2825 22.949 23.2037 23.3463L22.7317 23.4397C22.3704 23.5103 22.1357 23.861 22.2064 24.2224C22.2691 24.5397 22.5477 24.7597 22.8597 24.7597C22.9024 24.7597 22.9451 24.7557 22.9891 24.7464L23.4571 24.6544C23.8064 24.5877 32 22.981 32 18.6662C32 17.3249 31.5654 16.3662 30.7107 15.8142Z" fill="#FEFEFE"/>
<path d="M20.5236 7.08202C21.6077 5.7273 21.6077 3.60594 20.5236 2.25122C20.293 1.96321 19.8756 1.91521 19.5863 2.14721C19.2983 2.37791 19.2516 2.79654 19.4823 3.08455C20.169 3.94188 20.169 5.39129 19.481 6.25131C18.3957 7.60603 18.3957 9.72739 19.481 11.0821C19.613 11.2474 19.8063 11.3328 20.0023 11.3328C20.1476 11.3328 20.2956 11.2848 20.4183 11.1861C20.7063 10.9554 20.753 10.5354 20.5223 10.2488C19.8343 9.39139 19.8343 7.94204 20.5236 7.08202Z" fill="#FEFEFE"/>
<path d="M16.5183 7.08188C17.6036 5.72716 17.6036 3.6058 16.5183 2.25108C16.289 1.96307 15.8689 1.91638 15.5809 2.14707C15.2929 2.37777 15.2462 2.79778 15.4769 3.08441C16.1649 3.94174 16.1649 5.39115 15.4756 6.25117C14.3916 7.60589 14.3916 9.72725 15.4756 11.082C15.6076 11.2473 15.8009 11.3327 15.9969 11.3327C16.1423 11.3327 16.289 11.2847 16.413 11.186C16.701 10.9553 16.7477 10.5366 16.517 10.2486C15.8303 9.39124 15.8303 7.9419 16.5183 7.08188Z" fill="#FEFEFE"/>
<path d="M12.5236 7.08316C13.6077 5.72844 13.6077 3.60708 12.5236 2.25236C12.2943 1.96435 11.8756 1.91635 11.5863 2.14836C11.2996 2.37768 11.253 2.79769 11.4823 3.08438C12.169 3.94171 12.169 5.39112 11.481 6.25114C10.3957 7.60586 10.3957 9.72722 11.481 11.0819C11.613 11.2473 11.8063 11.3326 12.0023 11.3326C12.1476 11.3326 12.2956 11.2846 12.4183 11.1873C12.7063 10.9566 12.753 10.5366 12.5223 10.25C11.8343 9.39121 11.8343 7.94318 12.5236 7.08316Z" fill="#FEFEFE"/>
</svg>
