<svg width="32" height="32" viewBox="0 0 32 32" fill="none" xmlns="http://www.w3.org/2000/svg">
<g clip-path="url(#clip0_1_2605)">
<path d="M29.4436 27.2955H19.9207C21.2682 26.736 22.4958 25.9445 23.5534 24.9707H25.3838C29.032 24.9707 32 22.0027 32 18.3545C32 16.4132 30.4206 14.8338 28.4794 14.8338H27.5418V13.0915C27.5418 12.4364 27.0089 11.9035 26.3538 11.9035H4.05669C3.40162 11.9035 2.86869 12.4364 2.86869 13.0915V15.1708C2.86869 15.4297 3.07856 15.6395 3.33744 15.6395C3.59631 15.6395 3.80619 15.4297 3.80619 15.1708V13.0915C3.80619 12.9533 3.91856 12.841 4.05669 12.841H9.63075V14.9857C9.50312 15.0429 9.38544 15.1228 9.284 15.2252L7.52437 17.0015C7.31006 17.2178 7.192 17.5048 7.192 17.8093V21.7283C7.192 22.3612 7.70694 22.8762 8.33988 22.8762H11.8591C12.4921 22.8762 13.0071 22.3612 13.0071 21.7283V17.8093C13.0071 17.5047 12.889 17.2178 12.6746 17.0015L10.9151 15.2253C10.8136 15.1228 10.6959 15.0429 10.5683 14.9857V12.841H26.3539C26.492 12.841 26.6044 12.9533 26.6044 13.0915V15.8948V15.8987C26.6033 22.1666 21.5047 27.2955 15.2053 27.2955C9.45344 27.2955 4.58956 22.9972 3.8915 17.2972C3.86006 17.0403 3.62631 16.8572 3.36925 16.8889C3.11231 16.9203 2.9295 17.1542 2.96094 17.4112C3.51456 21.9317 6.48875 25.6374 10.4878 27.2955H0.966875C0.43375 27.2955 0 27.7293 0 28.2624C0 29.6196 1.10413 30.7237 2.46131 30.7237H22.5863C22.8452 30.7237 23.0551 30.5138 23.0551 30.255C23.0551 29.9961 22.8452 29.7862 22.5863 29.7862H2.46131C1.62106 29.7862 0.9375 29.1027 0.9375 28.2624C0.9375 28.2462 0.950688 28.233 0.966875 28.233H29.4436C29.4598 28.233 29.473 28.2462 29.473 28.2624C29.473 29.1027 28.7894 29.7862 27.9492 29.7862H24.7738C24.5149 29.7862 24.305 29.9961 24.305 30.255C24.305 30.5138 24.5149 30.7237 24.7738 30.7237H27.9492C29.3064 30.7237 30.4105 29.6196 30.4105 28.2624C30.4105 27.7292 29.9767 27.2955 29.4436 27.2955ZM12.0086 17.6612C12.0479 17.7009 12.0695 17.7535 12.0695 17.8093V21.7283C12.0695 21.8443 11.9751 21.9387 11.8591 21.9387H8.33981C8.22381 21.9387 8.12944 21.8443 8.12944 21.7283V17.8093C8.12944 17.7535 8.15106 17.7009 8.19038 17.6612L9.63069 16.2073V17.5407C9.63069 17.7995 9.84056 18.0094 10.0994 18.0094C10.3583 18.0094 10.5682 17.7995 10.5682 17.5407V16.2073L12.0086 17.6612ZM27.4456 17.4383H28.4794C28.9846 17.4383 29.3955 17.8493 29.3955 18.3544C29.3955 20.4552 27.772 22.1828 25.714 22.3514C26.6167 20.8873 27.2223 19.2215 27.4456 17.4383ZM27.5422 15.7713H28.4794C29.9038 15.7713 31.0625 16.9301 31.0625 18.3545C31.0625 21.4857 28.5151 24.0332 25.3838 24.0332H24.4775C24.6843 23.7976 24.8822 23.5541 25.0706 23.3037H25.3838C28.1128 23.3037 30.3331 21.0835 30.3331 18.3545C30.3331 17.3323 29.5015 16.5008 28.4794 16.5008H27.527C27.5387 16.2586 27.5419 16.0138 27.5422 15.7713Z" fill="black"/>
<path d="M14.5879 10.6609C14.8436 10.6609 15.0509 10.4535 15.0509 10.1978C15.0509 9.05017 16.2858 8.97354 16.2858 7.37854C16.2858 5.78198 15.0509 5.70911 15.0509 4.55892C15.0509 3.41242 16.2858 3.33336 16.2858 1.73929C16.2858 1.48354 16.0784 1.27623 15.8227 1.27623C15.5669 1.27623 15.3596 1.48354 15.3596 1.73929C15.3596 2.88698 14.1248 2.96379 14.1248 4.55892C14.1248 6.15567 15.3596 6.22823 15.3596 7.37854C15.3596 8.52611 14.1248 8.60286 14.1248 10.1978C14.1248 10.4535 14.3321 10.6609 14.5879 10.6609Z" fill="black"/>
<path d="M18.0881 10.6609C18.3439 10.6609 18.5512 10.4535 18.5512 10.1978C18.5512 9.05017 19.786 8.97354 19.786 7.37854C19.786 5.78198 18.5512 5.70911 18.5512 4.55892C18.5512 3.41242 19.786 3.33336 19.786 1.73929C19.786 1.48354 19.5787 1.27623 19.323 1.27623C19.0672 1.27623 18.8599 1.48354 18.8599 1.73929C18.8599 2.88698 17.6251 2.96379 17.6251 4.55892C17.6251 6.15567 18.8599 6.22823 18.8599 7.37854C18.8599 8.52611 17.6251 8.60286 17.6251 10.1978C17.6251 10.4535 17.8324 10.6609 18.0881 10.6609Z" fill="black"/>
<path d="M11.0876 10.6609C11.3434 10.6609 11.5507 10.4535 11.5507 10.1978C11.5507 9.05017 12.7855 8.97354 12.7855 7.37854C12.7855 5.78198 11.5507 5.70911 11.5507 4.55892C11.5507 3.41242 12.7855 3.33336 12.7855 1.73929C12.7855 1.48354 12.5782 1.27623 12.3224 1.27623C12.0667 1.27623 11.8594 1.48354 11.8594 1.73929C11.8594 2.88698 10.6246 2.96379 10.6246 4.55892C10.6246 6.15567 11.8594 6.22823 11.8594 7.37854C11.8594 8.52611 10.6246 8.60286 10.6246 10.1978C10.6246 10.4535 10.8319 10.6609 11.0876 10.6609Z" fill="black"/>
</g>
<defs>
<clipPath id="clip0_1_2605">
<rect width="32" height="32" fill="white"/>
</clipPath>
</defs>
</svg>

