<svg width="32" height="32" viewBox="0 0 32 32" fill="none" xmlns="http://www.w3.org/2000/svg">
<path d="M12 28H20" stroke="#171717" stroke-width="2" stroke-linecap="round" stroke-linejoin="round"/>
<path d="M7.02523 13C7.02357 11.814 7.25667 10.6394 7.71108 9.54395C8.16549 8.44847 8.83223 7.45376 9.67287 6.61716C10.5135 5.78056 11.5114 5.11861 12.6091 4.66948C13.7067 4.22034 14.8824 3.9929 16.0684 4.00026C21.0171 4.03705 24.9755 8.15043 24.9755 13.113V14C24.9755 18.477 25.9121 21.0749 26.7371 22.4948C26.826 22.6465 26.8732 22.819 26.8742 22.9948C26.8751 23.1706 26.8297 23.3436 26.7424 23.4963C26.6552 23.6489 26.5292 23.7759 26.3773 23.8643C26.2253 23.9528 26.0527 23.9996 25.8769 24H6.1228C5.94695 23.9996 5.77433 23.9527 5.62235 23.8643C5.47038 23.7758 5.34442 23.6488 5.25719 23.4961C5.16995 23.3435 5.12453 23.1705 5.1255 22.9946C5.12647 22.8188 5.1738 22.6463 5.26272 22.4946C6.08813 21.0746 7.02522 18.4767 7.02522 14L7.02523 13Z" stroke="#171717" stroke-width="2" stroke-linecap="round" stroke-linejoin="round"/>
</svg>
